<?xml version="1.0" encoding="UTF-8"?>
<!DOCTYPE svg PUBLIC "-//W3C//DTD SVG 1.1//EN" "http://www.w3.org/Graphics/SVG/1.1/DTD/svg11.dtd">
<svg version="1.1" xmlns="http://www.w3.org/2000/svg" xmlns:xlink="http://www.w3.org/1999/xlink" width="210" height="190"  xml:space="preserve" id="chatIcon">
    <!-- Generated by PaintCode - http://www.paintcodeapp.com -->

    <!-- This code was generated by Trial version of PaintCode, therefore cannot be used for commercial purposes. -->

    <path id="chatIcon-bezier2" stroke="rgb(0, 105, 92)" stroke-width="9" stroke-miterlimit="10" fill="rgb(29, 233, 182)" d="M 166.1,48.28 C 199.3,71.32 199.3,108.68 166.1,131.72 145.34,146.13 116.5,151.53 89.68,147.91 71.56,159.66 58.5,170.5 58.5,170.5 58.5,170.5 53.16,153.11 58.33,138.86 53.95,136.8 49.78,134.42 45.9,131.72 12.7,108.68 12.7,71.32 45.9,48.28 79.09,25.24 132.91,25.24 166.1,48.28 Z M 166.1,48.28" />
    <path id="chatIcon-oval2" stroke="rgb(24, 189, 148)" stroke-width="9" stroke-linecap="round" stroke-miterlimit="10" fill="none" d="M 105.65,43.5 C 87.51,43.64 69.43,48.13 55.59,56.97 38.57,67.85 31.85,82.81 35.44,96.92" />
    <circle id="chatIcon-oval" stroke="rgb(24, 189, 148)" stroke-width="9" stroke-miterlimit="10" fill="rgb(24, 189, 148)" cx="159.5" cy="86.5" r="10" />
    <circle id="chatIcon-oval3" stroke="rgb(24, 189, 148)" stroke-width="9" stroke-miterlimit="10" fill="rgb(24, 189, 148)" cx="115.5" cy="86.5" r="10" />
    <circle id="chatIcon-oval4" stroke="rgb(24, 189, 148)" stroke-width="9" stroke-miterlimit="10" fill="rgb(24, 189, 148)" cx="70.5" cy="86.5" r="10" />
</svg>
